<mxfile host="app.diagrams.net" modified="2022-10-02T16:28:25.036Z" agent="5.0 (Windows NT 10.0; Win64; x64) AppleWebKit/537.36 (KHTML, like Gecko) Chrome/106.0.0.0 Safari/537.36" etag="CrR1EdFrRrykywlnciqd" version="20.4.0" type="github">
  <diagram name="Page-1" id="bfe91b75-5d2c-26a0-9c1d-138518896778">
    <mxGraphModel dx="1829" dy="1375" grid="1" gridSize="10" guides="1" tooltips="1" connect="1" arrows="1" fold="1" page="1" pageScale="1" pageWidth="1100" pageHeight="850" background="none" math="0" shadow="0">
      <root>
        <mxCell id="0" />
        <mxCell id="1" parent="0" />
        <mxCell id="VqwPFKjOX7EhWZnsGxwt-45" style="edgeStyle=orthogonalEdgeStyle;shape=connector;rounded=0;orthogonalLoop=1;jettySize=auto;html=1;exitX=0.5;exitY=0;exitDx=0;exitDy=0;entryX=0.1;entryY=1;entryDx=0;entryDy=0;entryPerimeter=0;labelBackgroundColor=default;strokeColor=#d79b00;strokeWidth=3;fontFamily=Helvetica;fontSize=16;fontColor=default;startArrow=classic;startFill=1;endArrow=classic;fillColor=#ffe6cc;" edge="1" parent="1" source="VqwPFKjOX7EhWZnsGxwt-44" target="VqwPFKjOX7EhWZnsGxwt-2">
          <mxGeometry relative="1" as="geometry" />
        </mxCell>
        <mxCell id="VqwPFKjOX7EhWZnsGxwt-44" value="&lt;b style=&quot;font-size: 18px;&quot;&gt;IoT (192.168.4.0/24)&lt;/b&gt;" style="rounded=1;whiteSpace=wrap;html=1;fontFamily=Helvetica;fontSize=18;labelPosition=center;verticalLabelPosition=bottom;align=center;verticalAlign=top;fillColor=#ffe6cc;strokeColor=#d79b00;" vertex="1" parent="1">
          <mxGeometry x="1035" y="1170" width="185" height="200" as="geometry" />
        </mxCell>
        <mxCell id="VqwPFKjOX7EhWZnsGxwt-41" value="&lt;b style=&quot;font-size: 18px;&quot;&gt;Mixed Wireless (192.168.2.0/24) and IoT (192.168.4.0/24)&lt;/b&gt;" style="rounded=1;whiteSpace=wrap;html=1;fontFamily=Helvetica;fontSize=18;labelPosition=center;verticalLabelPosition=bottom;align=center;verticalAlign=top;fillColor=#e1d5e7;strokeColor=#9673a6;" vertex="1" parent="1">
          <mxGeometry x="1261" y="20" width="680" height="330" as="geometry" />
        </mxCell>
        <mxCell id="VqwPFKjOX7EhWZnsGxwt-21" value="&lt;b style=&quot;font-size: 18px;&quot;&gt;Home Lab Network&amp;nbsp;&lt;br style=&quot;font-size: 18px;&quot;&gt;(192.168.3.0/24)&lt;br style=&quot;font-size: 18px;&quot;&gt;&lt;/b&gt;" style="rounded=1;whiteSpace=wrap;html=1;fontFamily=Helvetica;fontSize=18;labelPosition=center;verticalLabelPosition=bottom;align=center;verticalAlign=top;fillColor=#d5e8d4;strokeColor=#82b366;" vertex="1" parent="1">
          <mxGeometry x="780" y="400" width="440" height="580" as="geometry" />
        </mxCell>
        <mxCell id="VqwPFKjOX7EhWZnsGxwt-24" value="" style="shape=ext;double=1;rounded=1;whiteSpace=wrap;html=1;fontFamily=Helvetica;fontSize=16;fontColor=default;arcSize=8;" vertex="1" parent="1">
          <mxGeometry x="280" y="780" width="530" height="410" as="geometry" />
        </mxCell>
        <mxCell id="VqwPFKjOX7EhWZnsGxwt-20" value="&lt;b style=&quot;font-size: 18px;&quot;&gt;Home LAN Network (192.168.2.0/24)&lt;/b&gt;" style="rounded=1;whiteSpace=wrap;html=1;fontFamily=Helvetica;fontSize=18;labelPosition=center;verticalLabelPosition=bottom;align=center;verticalAlign=top;fillColor=#dae8fc;strokeColor=#6c8ebf;" vertex="1" parent="1">
          <mxGeometry x="1320" y="1170" width="460" height="290" as="geometry" />
        </mxCell>
        <mxCell id="7c3789c024ecab99-53" value="Internet" style="html=1;fillColor=#CCCCCC;strokeColor=#6881B3;gradientColor=none;gradientDirection=north;strokeWidth=2;shape=mxgraph.networks.cloud;fontColor=#6881B3;rounded=0;shadow=0;comic=0;align=center;fontSize=28;" parent="1" vertex="1">
          <mxGeometry x="1840" y="827" width="330" height="140" as="geometry" />
        </mxCell>
        <mxCell id="7c3789c024ecab99-56" style="edgeStyle=none;html=1;labelBackgroundColor=none;endArrow=none;endFill=0;strokeWidth=2;fontFamily=Verdana;fontSize=28;fontColor=#6881B3;exitX=1;exitY=0.5;exitDx=0;exitDy=0;exitPerimeter=0;" parent="1" source="VqwPFKjOX7EhWZnsGxwt-2" target="7c3789c024ecab99-53" edge="1">
          <mxGeometry relative="1" as="geometry">
            <mxPoint x="1640" y="897" as="sourcePoint" />
          </mxGeometry>
        </mxCell>
        <mxCell id="VqwPFKjOX7EhWZnsGxwt-16" style="edgeStyle=orthogonalEdgeStyle;shape=connector;rounded=0;orthogonalLoop=1;jettySize=auto;html=1;exitX=0.5;exitY=1;exitDx=0;exitDy=0;exitPerimeter=0;labelBackgroundColor=default;strokeColor=#6c8ebf;strokeWidth=3;fontFamily=Helvetica;fontSize=16;fontColor=default;startArrow=classic;startFill=1;endArrow=classic;fillColor=#dae8fc;" edge="1" parent="1" source="VqwPFKjOX7EhWZnsGxwt-2" target="VqwPFKjOX7EhWZnsGxwt-12">
          <mxGeometry relative="1" as="geometry">
            <Array as="points">
              <mxPoint x="1580" y="1100" />
              <mxPoint x="1630" y="1100" />
            </Array>
          </mxGeometry>
        </mxCell>
        <mxCell id="VqwPFKjOX7EhWZnsGxwt-17" style="edgeStyle=orthogonalEdgeStyle;shape=connector;rounded=0;orthogonalLoop=1;jettySize=auto;html=1;exitX=0;exitY=0.5;exitDx=0;exitDy=0;exitPerimeter=0;labelBackgroundColor=default;strokeColor=#82b366;strokeWidth=3;fontFamily=Helvetica;fontSize=16;fontColor=default;startArrow=classic;startFill=1;endArrow=classic;fillColor=#d5e8d4;entryX=1;entryY=0.5;entryDx=0;entryDy=0;entryPerimeter=0;" edge="1" parent="1" source="VqwPFKjOX7EhWZnsGxwt-2" target="VqwPFKjOX7EhWZnsGxwt-13">
          <mxGeometry relative="1" as="geometry">
            <Array as="points">
              <mxPoint x="1190" y="897" />
              <mxPoint x="1190" y="660" />
            </Array>
          </mxGeometry>
        </mxCell>
        <mxCell id="VqwPFKjOX7EhWZnsGxwt-18" style="edgeStyle=orthogonalEdgeStyle;shape=connector;rounded=0;orthogonalLoop=1;jettySize=auto;html=1;exitX=0;exitY=0.5;exitDx=0;exitDy=0;exitPerimeter=0;entryX=1;entryY=0.5;entryDx=0;entryDy=0;entryPerimeter=0;labelBackgroundColor=default;strokeColor=#82b366;strokeWidth=3;fontFamily=Helvetica;fontSize=16;fontColor=default;startArrow=classic;startFill=1;endArrow=classic;fillColor=#d5e8d4;" edge="1" parent="1" source="VqwPFKjOX7EhWZnsGxwt-2" target="VqwPFKjOX7EhWZnsGxwt-14">
          <mxGeometry relative="1" as="geometry">
            <Array as="points">
              <mxPoint x="1190" y="897" />
              <mxPoint x="1190" y="840" />
            </Array>
          </mxGeometry>
        </mxCell>
        <mxCell id="VqwPFKjOX7EhWZnsGxwt-2" value="&lt;b&gt;UDM-P&lt;/b&gt;" style="fontColor=#0066CC;verticalAlign=bottom;verticalLabelPosition=top;labelPosition=right;align=left;html=1;outlineConnect=0;fillColor=#CCCCCC;strokeColor=#6881B3;gradientColor=none;gradientDirection=north;strokeWidth=2;shape=mxgraph.networks.router;fontSize=16;" vertex="1" parent="1">
          <mxGeometry x="1530" y="882" width="100" height="30" as="geometry" />
        </mxCell>
        <mxCell id="VqwPFKjOX7EhWZnsGxwt-5" style="edgeStyle=orthogonalEdgeStyle;rounded=0;orthogonalLoop=1;jettySize=auto;html=1;entryX=0.5;entryY=0;entryDx=0;entryDy=0;entryPerimeter=0;fontSize=16;strokeWidth=3;startArrow=classic;startFill=1;fillColor=#e1d5e7;strokeColor=#9673a6;" edge="1" parent="1" source="VqwPFKjOX7EhWZnsGxwt-3" target="VqwPFKjOX7EhWZnsGxwt-2">
          <mxGeometry relative="1" as="geometry">
            <mxPoint x="1580" y="710" as="sourcePoint" />
          </mxGeometry>
        </mxCell>
        <mxCell id="VqwPFKjOX7EhWZnsGxwt-7" style="edgeStyle=orthogonalEdgeStyle;shape=connector;rounded=0;orthogonalLoop=1;jettySize=auto;html=1;exitX=0.5;exitY=0;exitDx=0;exitDy=0;exitPerimeter=0;entryX=0.5;entryY=1;entryDx=0;entryDy=0;entryPerimeter=0;labelBackgroundColor=default;strokeColor=#9673a6;strokeWidth=3;fontFamily=Helvetica;fontSize=16;fontColor=default;startArrow=classic;startFill=1;endArrow=classic;fillColor=#e1d5e7;" edge="1" parent="1" source="VqwPFKjOX7EhWZnsGxwt-3" target="VqwPFKjOX7EhWZnsGxwt-6">
          <mxGeometry relative="1" as="geometry" />
        </mxCell>
        <mxCell id="VqwPFKjOX7EhWZnsGxwt-10" style="edgeStyle=orthogonalEdgeStyle;shape=connector;rounded=0;orthogonalLoop=1;jettySize=auto;html=1;exitX=0;exitY=0.5;exitDx=0;exitDy=0;exitPerimeter=0;labelBackgroundColor=default;strokeColor=#82b366;strokeWidth=3;fontFamily=Helvetica;fontSize=16;fontColor=default;startArrow=classic;startFill=1;endArrow=classic;fillColor=#d5e8d4;entryX=1;entryY=0.5;entryDx=0;entryDy=0;entryPerimeter=0;" edge="1" parent="1" source="VqwPFKjOX7EhWZnsGxwt-3" target="VqwPFKjOX7EhWZnsGxwt-8">
          <mxGeometry relative="1" as="geometry">
            <Array as="points">
              <mxPoint x="1280" y="735" />
              <mxPoint x="1280" y="483" />
            </Array>
          </mxGeometry>
        </mxCell>
        <mxCell id="VqwPFKjOX7EhWZnsGxwt-3" value="&lt;b&gt;Switch Flex Mini (Second Floor)&lt;/b&gt;" style="fontColor=#0066CC;verticalAlign=middle;verticalLabelPosition=middle;labelPosition=right;align=left;html=1;outlineConnect=0;fillColor=#CCCCCC;strokeColor=#6881B3;gradientColor=none;gradientDirection=north;strokeWidth=2;shape=mxgraph.networks.switch;fontSize=16;" vertex="1" parent="1">
          <mxGeometry x="1530" y="720" width="100" height="30" as="geometry" />
        </mxCell>
        <mxCell id="VqwPFKjOX7EhWZnsGxwt-6" value="&lt;b&gt;UNIFI6 LITE - WAP&lt;/b&gt;" style="fontColor=#0066CC;verticalAlign=middle;verticalLabelPosition=middle;labelPosition=right;align=left;html=1;outlineConnect=0;fillColor=#CCCCCC;strokeColor=#6881B3;gradientColor=none;gradientDirection=north;strokeWidth=2;shape=mxgraph.networks.wireless_hub;fontFamily=Helvetica;fontSize=16;" vertex="1" parent="1">
          <mxGeometry x="1530" y="480" width="100" height="85" as="geometry" />
        </mxCell>
        <mxCell id="VqwPFKjOX7EhWZnsGxwt-8" value="&lt;b&gt;Vizio TV&lt;/b&gt;" style="fontColor=#0066CC;verticalAlign=top;verticalLabelPosition=bottom;labelPosition=center;align=center;html=1;outlineConnect=0;fillColor=#CCCCCC;strokeColor=#6881B3;gradientColor=none;gradientDirection=north;strokeWidth=2;shape=mxgraph.networks.monitor;fontFamily=Helvetica;fontSize=16;" vertex="1" parent="1">
          <mxGeometry x="930" y="450" width="80" height="65" as="geometry" />
        </mxCell>
        <mxCell id="VqwPFKjOX7EhWZnsGxwt-12" value="PC1" style="fontColor=#0066CC;verticalAlign=top;verticalLabelPosition=bottom;labelPosition=center;align=center;html=1;outlineConnect=0;fillColor=#CCCCCC;strokeColor=#6881B3;gradientColor=none;gradientDirection=north;strokeWidth=2;shape=mxgraph.networks.pc;fontFamily=Helvetica;fontSize=16;fontStyle=1" vertex="1" parent="1">
          <mxGeometry x="1580" y="1285" width="100" height="70" as="geometry" />
        </mxCell>
        <mxCell id="VqwPFKjOX7EhWZnsGxwt-13" value="&lt;b&gt;REDSTONE&lt;/b&gt;" style="fontColor=#0066CC;verticalAlign=top;verticalLabelPosition=bottom;labelPosition=center;align=center;html=1;outlineConnect=0;fillColor=#CCCCCC;strokeColor=#6881B3;gradientColor=none;gradientDirection=north;strokeWidth=2;shape=mxgraph.networks.server;fontFamily=Helvetica;fontSize=16;" vertex="1" parent="1">
          <mxGeometry x="930" y="610" width="90" height="100" as="geometry" />
        </mxCell>
        <mxCell id="VqwPFKjOX7EhWZnsGxwt-14" value="&lt;b&gt;TRITIUM&lt;/b&gt;" style="fontColor=#0066CC;verticalAlign=top;verticalLabelPosition=bottom;labelPosition=center;align=center;html=1;outlineConnect=0;fillColor=#CCCCCC;strokeColor=#6881B3;gradientColor=none;gradientDirection=north;strokeWidth=2;shape=mxgraph.networks.server;fontFamily=Helvetica;fontSize=16;" vertex="1" parent="1">
          <mxGeometry x="930" y="790" width="90" height="100" as="geometry" />
        </mxCell>
        <mxCell id="VqwPFKjOX7EhWZnsGxwt-19" style="edgeStyle=orthogonalEdgeStyle;shape=connector;rounded=0;orthogonalLoop=1;jettySize=auto;html=1;exitX=0.5;exitY=0;exitDx=0;exitDy=0;exitPerimeter=0;entryX=0.5;entryY=1;entryDx=0;entryDy=0;entryPerimeter=0;labelBackgroundColor=default;strokeColor=#6c8ebf;strokeWidth=3;fontFamily=Helvetica;fontSize=16;fontColor=default;startArrow=classic;startFill=1;endArrow=classic;fillColor=#dae8fc;" edge="1" parent="1" source="VqwPFKjOX7EhWZnsGxwt-15" target="VqwPFKjOX7EhWZnsGxwt-2">
          <mxGeometry relative="1" as="geometry">
            <Array as="points">
              <mxPoint x="1463" y="1100" />
              <mxPoint x="1580" y="1100" />
            </Array>
          </mxGeometry>
        </mxCell>
        <mxCell id="VqwPFKjOX7EhWZnsGxwt-15" value="&lt;b&gt;Synology NAS&lt;/b&gt;" style="fontColor=#0066CC;verticalAlign=top;verticalLabelPosition=bottom;labelPosition=center;align=center;html=1;outlineConnect=0;fillColor=#CCCCCC;strokeColor=#6881B3;gradientColor=none;gradientDirection=north;strokeWidth=2;shape=mxgraph.networks.server_storage;fontFamily=Helvetica;fontSize=16;" vertex="1" parent="1">
          <mxGeometry x="1410" y="1250" width="105" height="105" as="geometry" />
        </mxCell>
        <mxCell id="VqwPFKjOX7EhWZnsGxwt-26" value="Keycloak&lt;span style=&quot;color: rgba(0, 0, 0, 0); font-family: monospace; font-size: 0px; text-align: start; background-color: rgb(248, 249, 250);&quot;&gt;%3CmxGraphModel%3E%3Croot%3E%3CmxCell%20id%3D%220%22%2F%3E%3CmxCell%20id%3D%221%22%20parent%3D%220%22%2F%3E%3CmxCell%20id%3D%222%22%20value%3D%22%26lt%3Bb%26gt%3BHome%20LAN%20Network%20(192.168.2.1%2F24)%26lt%3B%2Fb%26gt%3B%22%20style%3D%22rounded%3D1%3BwhiteSpace%3Dwrap%3Bhtml%3D1%3BfontFamily%3DHelvetica%3BfontSize%3D16%3BlabelPosition%3Dcenter%3BverticalLabelPosition%3Dbottom%3Balign%3Dcenter%3BverticalAlign%3Dtop%3BfillColor%3D%23dae8fc%3BstrokeColor%3D%236c8ebf%3B%22%20vertex%3D%221%22%20parent%3D%221%22%3E%3CmxGeometry%20x%3D%22860%22%20y%3D%22840%22%20width%3D%22460%22%20height%3D%22290%22%20as%3D%22geometry%22%2F%3E%3C%2FmxCell%3E%3C%2Froot%3E%3C%2FmxGraphModel%3E&lt;/span&gt;" style="shape=image;html=1;verticalAlign=top;verticalLabelPosition=bottom;labelBackgroundColor=#ffffff;imageAspect=0;aspect=fixed;image=https://cdn0.iconfinder.com/data/icons/social-media-2104/24/social_media_social_media_logo_docker-128.png;fontFamily=Helvetica;fontSize=16;fontColor=default;" vertex="1" parent="1">
          <mxGeometry x="325" y="800" width="90" height="90" as="geometry" />
        </mxCell>
        <mxCell id="VqwPFKjOX7EhWZnsGxwt-29" value="Minecraft Servers" style="shape=image;html=1;verticalAlign=top;verticalLabelPosition=bottom;labelBackgroundColor=#ffffff;imageAspect=0;aspect=fixed;image=https://cdn0.iconfinder.com/data/icons/social-media-2104/24/social_media_social_media_logo_docker-128.png;fontFamily=Helvetica;fontSize=16;fontColor=default;" vertex="1" parent="1">
          <mxGeometry x="325" y="930" width="90" height="90" as="geometry" />
        </mxCell>
        <mxCell id="VqwPFKjOX7EhWZnsGxwt-30" value="Discord Bots" style="shape=image;html=1;verticalAlign=top;verticalLabelPosition=bottom;labelBackgroundColor=#ffffff;imageAspect=0;aspect=fixed;image=https://cdn0.iconfinder.com/data/icons/social-media-2104/24/social_media_social_media_logo_docker-128.png;fontFamily=Helvetica;fontSize=16;fontColor=default;" vertex="1" parent="1">
          <mxGeometry x="470" y="800" width="90" height="90" as="geometry" />
        </mxCell>
        <mxCell id="VqwPFKjOX7EhWZnsGxwt-32" value="Misc Node Projects" style="shape=image;html=1;verticalAlign=top;verticalLabelPosition=bottom;labelBackgroundColor=#ffffff;imageAspect=0;aspect=fixed;image=https://cdn0.iconfinder.com/data/icons/social-media-2104/24/social_media_social_media_logo_docker-128.png;fontFamily=Helvetica;fontSize=16;fontColor=default;" vertex="1" parent="1">
          <mxGeometry x="470" y="930" width="90" height="90" as="geometry" />
        </mxCell>
        <mxCell id="VqwPFKjOX7EhWZnsGxwt-33" value="NGINX reverse proxy" style="shape=image;html=1;verticalAlign=top;verticalLabelPosition=bottom;labelBackgroundColor=#ffffff;imageAspect=0;aspect=fixed;image=https://cdn0.iconfinder.com/data/icons/social-media-2104/24/social_media_social_media_logo_docker-128.png;fontFamily=Helvetica;fontSize=16;fontColor=default;" vertex="1" parent="1">
          <mxGeometry x="690" y="860" width="90" height="90" as="geometry" />
        </mxCell>
        <mxCell id="VqwPFKjOX7EhWZnsGxwt-34" value="Octoprint" style="shape=ext;double=1;rounded=1;whiteSpace=wrap;html=1;fontFamily=Helvetica;fontSize=16;fontColor=default;arcSize=8;" vertex="1" parent="1">
          <mxGeometry x="790" y="610" width="130" height="70" as="geometry" />
        </mxCell>
        <mxCell id="VqwPFKjOX7EhWZnsGxwt-36" style="edgeStyle=orthogonalEdgeStyle;shape=connector;rounded=0;orthogonalLoop=1;jettySize=auto;html=1;exitX=1;exitY=0.5;exitDx=0;exitDy=0;entryX=0;entryY=0.5;entryDx=0;entryDy=0;labelBackgroundColor=default;strokeColor=default;strokeWidth=3;fontFamily=Helvetica;fontSize=16;fontColor=default;startArrow=classic;startFill=1;endArrow=classic;dashed=1;" edge="1" parent="1" source="VqwPFKjOX7EhWZnsGxwt-35" target="VqwPFKjOX7EhWZnsGxwt-34">
          <mxGeometry relative="1" as="geometry" />
        </mxCell>
        <mxCell id="VqwPFKjOX7EhWZnsGxwt-35" value="3D Printer" style="shape=image;html=1;verticalAlign=top;verticalLabelPosition=bottom;labelBackgroundColor=#ffffff;imageAspect=0;aspect=fixed;image=https://cdn2.iconfinder.com/data/icons/analytic-investment-and-balanced-scorecard/512/428_3d_dimensional_machine_printer_printing_3d_print_printing-128.png;fontFamily=Helvetica;fontSize=16;fontColor=default;" vertex="1" parent="1">
          <mxGeometry x="580" y="581" width="128" height="128" as="geometry" />
        </mxCell>
        <mxCell id="VqwPFKjOX7EhWZnsGxwt-37" value="Home Assistant" style="shape=image;html=1;verticalAlign=top;verticalLabelPosition=bottom;labelBackgroundColor=#ffffff;imageAspect=0;aspect=fixed;image=https://cdn0.iconfinder.com/data/icons/social-media-2104/24/social_media_social_media_logo_docker-128.png;fontFamily=Helvetica;fontSize=16;fontColor=default;" vertex="1" parent="1">
          <mxGeometry x="325" y="1060" width="90" height="90" as="geometry" />
        </mxCell>
        <mxCell id="VqwPFKjOX7EhWZnsGxwt-38" value="" style="shape=flexArrow;endArrow=classic;html=1;rounded=0;labelBackgroundColor=default;strokeColor=default;strokeWidth=3;fontFamily=Helvetica;fontSize=16;fontColor=default;fillColor=default;" edge="1" parent="1" target="VqwPFKjOX7EhWZnsGxwt-14">
          <mxGeometry width="50" height="50" relative="1" as="geometry">
            <mxPoint x="790" y="890" as="sourcePoint" />
            <mxPoint x="840" y="840" as="targetPoint" />
          </mxGeometry>
        </mxCell>
        <mxCell id="VqwPFKjOX7EhWZnsGxwt-39" value="" style="html=1;outlineConnect=0;fillColor=#CCCCCC;strokeColor=#6881B3;gradientColor=none;gradientDirection=north;strokeWidth=2;shape=mxgraph.networks.comm_link_edge;html=1;rounded=0;labelBackgroundColor=default;fontFamily=Helvetica;fontSize=16;fontColor=default;startArrow=classic;startFill=1;endArrow=classic;exitX=0.55;exitY=0;exitDx=0;exitDy=0;exitPerimeter=0;" edge="1" parent="1" source="VqwPFKjOX7EhWZnsGxwt-6">
          <mxGeometry width="100" height="100" relative="1" as="geometry">
            <mxPoint x="1600" y="420" as="sourcePoint" />
            <mxPoint x="1670" y="380" as="targetPoint" />
            <Array as="points">
              <mxPoint x="1660" y="420" />
            </Array>
          </mxGeometry>
        </mxCell>
        <mxCell id="VqwPFKjOX7EhWZnsGxwt-40" value="" style="shape=image;html=1;verticalAlign=top;verticalLabelPosition=bottom;labelBackgroundColor=none;imageAspect=0;aspect=fixed;image=https://cdn1.iconfinder.com/data/icons/iconoir-vol-2/24/google-home-128.png;fontFamily=Helvetica;fontSize=16;fontColor=#0066CC;fontStyle=1" vertex="1" parent="1">
          <mxGeometry x="1670" y="185" width="88" height="88" as="geometry" />
        </mxCell>
        <mxCell id="VqwPFKjOX7EhWZnsGxwt-43" value="Philips Hue Bridge" style="outlineConnect=0;dashed=0;verticalLabelPosition=bottom;verticalAlign=top;align=center;html=1;shape=mxgraph.aws3.lightbulb;fillColor=#5294CF;gradientColor=none;fontFamily=Helvetica;fontSize=16;fontColor=default;" vertex="1" parent="1">
          <mxGeometry x="1087.75" y="1220" width="79.5" height="79.5" as="geometry" />
        </mxCell>
        <mxCell id="VqwPFKjOX7EhWZnsGxwt-46" value="" style="fontColor=#0066CC;verticalAlign=top;verticalLabelPosition=bottom;labelPosition=center;align=center;html=1;outlineConnect=0;fillColor=#CCCCCC;strokeColor=#6881B3;gradientColor=none;gradientDirection=north;strokeWidth=2;shape=mxgraph.networks.mobile;fontFamily=Helvetica;fontSize=16;" vertex="1" parent="1">
          <mxGeometry x="1360" y="53" width="50" height="100" as="geometry" />
        </mxCell>
        <mxCell id="VqwPFKjOX7EhWZnsGxwt-47" value="" style="fontColor=#0066CC;verticalAlign=top;verticalLabelPosition=bottom;labelPosition=center;align=center;html=1;outlineConnect=0;fillColor=#CCCCCC;strokeColor=#6881B3;gradientColor=none;gradientDirection=north;strokeWidth=2;shape=mxgraph.networks.laptop;fontFamily=Helvetica;fontSize=16;" vertex="1" parent="1">
          <mxGeometry x="1460" y="75.5" width="100" height="55" as="geometry" />
        </mxCell>
        <mxCell id="VqwPFKjOX7EhWZnsGxwt-48" value="" style="fontColor=#0066CC;verticalAlign=top;verticalLabelPosition=bottom;labelPosition=center;align=center;html=1;outlineConnect=0;fillColor=#CCCCCC;strokeColor=#6881B3;gradientColor=none;gradientDirection=north;strokeWidth=2;shape=mxgraph.networks.laptop;fontFamily=Helvetica;fontSize=16;" vertex="1" parent="1">
          <mxGeometry x="1460" y="195.5" width="100" height="55" as="geometry" />
        </mxCell>
        <mxCell id="VqwPFKjOX7EhWZnsGxwt-49" value="" style="fontColor=#0066CC;verticalAlign=top;verticalLabelPosition=bottom;labelPosition=center;align=center;html=1;outlineConnect=0;fillColor=#CCCCCC;strokeColor=#6881B3;gradientColor=none;gradientDirection=north;strokeWidth=2;shape=mxgraph.networks.mobile;fontFamily=Helvetica;fontSize=16;" vertex="1" parent="1">
          <mxGeometry x="1360" y="173" width="50" height="100" as="geometry" />
        </mxCell>
        <mxCell id="VqwPFKjOX7EhWZnsGxwt-50" value="" style="outlineConnect=0;dashed=0;verticalLabelPosition=bottom;verticalAlign=top;align=center;html=1;shape=mxgraph.aws3.thermostat;fillColor=#5294CF;gradientColor=none;labelBackgroundColor=none;fontFamily=Helvetica;fontSize=18;fontColor=#0066CC;" vertex="1" parent="1">
          <mxGeometry x="1680" y="63" width="79.5" height="79.5" as="geometry" />
        </mxCell>
      </root>
    </mxGraphModel>
  </diagram>
</mxfile>
